# WaveFront *.obj file (generated by Autodesk ATF)

mtllib Push Block.mtl

g Body1

v -55.000000 -130.000000 100.000000
v -65.000000 -120.000000 100.000000
v -65.000000 -120.000000 80.000000
v -55.000000 -130.000000 80.000000
v 50.000000 -130.000000 80.000000
v 50.000000 -130.000000 100.000000
v -65.000000 -65.000000 80.000000
v -55.000000 -55.000000 80.000000
v 50.000000 -55.000000 80.000000
v 60.000000 -65.000000 80.000000
v 60.000000 -120.000000 80.000000
v -65.000000 -65.000000 100.000000
v -55.000000 -55.000000 100.000000
v 50.000000 -55.000000 100.000000
v 60.000000 -65.000000 100.000000
v 60.000000 -120.000000 100.000000
vt 2.000000 0.707107 0.000000
vt 0.000000 0.707107 0.000000
vt 2.000000 -0.707107 0.000000
vt 0.000000 -0.707107 0.000000
vt 1.000000 0.000000 0.000000
vt 11.500000 0.000000 0.000000
vt 1.000000 2.000000 0.000000
vt 11.500000 2.000000 0.000000
vt -5.250000 -3.750000 0.000000
vt 5.250000 -3.750000 0.000000
vt -6.250000 -2.750000 0.000000
vt 6.250000 -2.750000 0.000000
vt -6.250000 2.750000 0.000000
vt 6.250000 2.750000 0.000000
vt -5.250000 3.750000 0.000000
vt 5.250000 3.750000 0.000000
vt 2.000000 0.707107 0.000000
vt 0.000000 0.707107 0.000000
vt 2.000000 -0.707107 0.000000
vt 0.000000 -0.707107 0.000000
vt 11.500000 2.000000 0.000000
vt 1.000000 2.000000 0.000000
vt 11.500000 0.000000 0.000000
vt 1.000000 0.000000 0.000000
vt -2.000000 -0.707107 0.000000
vt -0.000000 -0.707107 0.000000
vt -2.000000 0.707107 0.000000
vt 0.000000 0.707107 0.000000
vt -2.000000 -0.707107 0.000000
vt -0.000000 -0.707107 0.000000
vt -2.000000 0.707107 0.000000
vt 0.000000 0.707107 0.000000
vt 6.500000 2.000000 0.000000
vt 1.000000 2.000000 0.000000
vt 6.500000 0.000000 0.000000
vt 1.000000 0.000000 0.000000
vt 6.500000 2.000000 0.000000
vt 1.000000 2.000000 0.000000
vt 6.500000 0.000000 0.000000
vt 1.000000 0.000000 0.000000
vt -5.250000 -3.750000 0.000000
vt 5.250000 -3.750000 0.000000
vt -6.250000 -2.750000 0.000000
vt 6.250000 -2.750000 0.000000
vt -6.250000 2.750000 0.000000
vt 6.250000 2.750000 0.000000
vt -5.250000 3.750000 0.000000
vt 5.250000 3.750000 0.000000
vn -0.070711 -0.070711 0.000000
vn -0.070711 -0.070711 0.000000
vn -0.070711 -0.070711 0.000000
vn -0.070711 -0.070711 0.000000
vn 0.000000 -0.100000 0.000000
vn 0.000000 -0.100000 0.000000
vn 0.000000 -0.100000 0.000000
vn 0.000000 -0.100000 0.000000
vn 0.000000 0.000000 -0.100000
vn 0.000000 0.000000 -0.100000
vn 0.000000 0.000000 -0.100000
vn 0.000000 0.000000 -0.100000
vn 0.000000 0.000000 -0.100000
vn 0.000000 0.000000 -0.100000
vn 0.000000 0.000000 -0.100000
vn 0.000000 0.000000 -0.100000
vn -0.070711 0.070711 0.000000
vn -0.070711 0.070711 0.000000
vn -0.070711 0.070711 0.000000
vn -0.070711 0.070711 0.000000
vn 0.000000 0.100000 0.000000
vn 0.000000 0.100000 0.000000
vn 0.000000 0.100000 0.000000
vn 0.000000 0.100000 0.000000
vn 0.070711 0.070711 0.000000
vn 0.070711 0.070711 0.000000
vn 0.070711 0.070711 0.000000
vn 0.070711 0.070711 0.000000
vn 0.070711 -0.070711 0.000000
vn 0.070711 -0.070711 0.000000
vn 0.070711 -0.070711 0.000000
vn 0.070711 -0.070711 0.000000
vn 0.100000 0.000000 0.000000
vn 0.100000 0.000000 0.000000
vn 0.100000 0.000000 0.000000
vn 0.100000 0.000000 0.000000
vn -0.100000 0.000000 0.000000
vn -0.100000 0.000000 0.000000
vn -0.100000 0.000000 0.000000
vn -0.100000 0.000000 0.000000
vn 0.000000 0.000000 0.100000
vn 0.000000 0.000000 0.100000
vn 0.000000 0.000000 0.100000
vn 0.000000 0.000000 0.100000
vn 0.000000 0.000000 0.100000
vn 0.000000 0.000000 0.100000
vn 0.000000 0.000000 0.100000
vn 0.000000 0.000000 0.100000
usemtl ABS_(White)
f 2/1/1 3/2/2 1/3/3
f 1/3/3 3/2/2 4/4/4
f 4/5/5 5/6/6 1/7/7
f 1/7/7 5/6/6 6/8/8
f 5/9/9 4/10/10 11/11/11
f 11/11/11 4/10/10 3/12/12
f 11/11/11 3/12/12 10/13/13
f 10/13/13 3/12/12 7/14/14
f 10/13/13 7/14/14 9/15/15
f 9/15/15 7/14/14 8/16/16
f 13/17/17 8/18/18 12/19/19
f 12/19/19 8/18/18 7/20/20
f 13/21/21 14/22/22 8/23/23
f 8/23/23 14/22/22 9/24/24
f 15/25/25 10/26/26 14/27/27
f 14/27/27 10/26/26 9/28/28
f 6/29/29 5/30/30 16/31/31
f 16/31/31 5/30/30 11/32/32
f 15/33/33 16/34/34 10/35/35
f 10/35/35 16/34/34 11/36/36
f 2/37/37 12/38/38 3/39/39
f 3/39/39 12/38/38 7/40/40
f 1/41/41 6/42/42 2/43/43
f 2/43/43 6/42/42 16/44/44
f 2/43/43 16/44/44 12/45/45
f 12/45/45 16/44/44 15/46/46
f 12/45/45 15/46/46 13/47/47
f 13/47/47 15/46/46 14/48/48
g Body2

v -3.500000 -99.500001 90.500001
v -3.500000 -91.500001 90.500001
v 2.500000 -91.500001 90.500001
v 2.500000 -99.500001 90.500001
v -3.500000 -99.500001 74.000001
v 2.500000 -99.500001 74.000001
v -3.500000 -91.500001 74.000001
v 2.500000 -91.500001 74.000001
v -4.000000 -100.000001 74.000001
v -4.000000 -91.000001 74.000001
v 3.000000 -91.000001 74.000001
v 3.000000 -100.000001 74.000001
v -4.000000 -91.000001 91.000001
v -4.000000 -100.000001 91.000001
v 3.000000 -100.000001 91.000001
v 3.000000 -91.000001 91.000001
vt -0.650000 -0.150000 0.000000
vt 0.150000 -0.150000 0.000000
vt -0.650000 0.450000 0.000000
vt 0.150000 0.450000 0.000000
vt -1.600000 -0.150000 0.000000
vt 0.050000 -0.150000 0.000000
vt -1.600000 0.450000 0.000000
vt 0.050000 0.450000 0.000000
vt -1.550000 -0.150000 0.000000
vt 0.100000 -0.150000 0.000000
vt -1.550000 0.450000 0.000000
vt 0.100000 0.450000 0.000000
vt 0.800000 0.400000 0.000000
vt -0.850000 0.400000 0.000000
vt 0.800000 -0.400000 0.000000
vt -0.850000 -0.400000 0.000000
vt 0.400000 0.800000 0.000000
vt -0.400000 0.800000 0.000000
vt 0.400000 -0.850000 0.000000
vt -0.400000 -0.850000 0.000000
vt 0.650000 -0.150000 0.000000
vt 0.700000 -0.200000 0.000000
vt 0.650000 0.450000 0.000000
vt 0.700000 0.500000 0.000000
vt -0.200000 0.500000 0.000000
vt -0.150000 -0.150000 0.000000
vt -0.200000 -0.200000 0.000000
vt -0.150000 0.450000 0.000000
vt -0.200000 -0.200000 0.000000
vt 0.700000 -0.200000 0.000000
vt -0.200000 0.500000 0.000000
vt 0.700000 0.500000 0.000000
vt -0.100000 -0.200000 0.000000
vt 1.600000 -0.200000 0.000000
vt -0.100000 0.500000 0.000000
vt 1.600000 0.500000 0.000000
vt -0.100000 -0.200000 0.000000
vt 1.600000 -0.200000 0.000000
vt -0.100000 0.500000 0.000000
vt 1.600000 0.500000 0.000000
vt 0.850000 0.450000 0.000000
vt -0.850000 0.450000 0.000000
vt 0.850000 -0.450000 0.000000
vt -0.850000 -0.450000 0.000000
vt -0.450000 -0.850000 0.000000
vt 0.450000 -0.850000 0.000000
vt -0.450000 0.850000 0.000000
vt 0.450000 0.850000 0.000000
vn 0.000000 0.000000 -0.100000
vn 0.000000 0.000000 -0.100000
vn 0.000000 0.000000 -0.100000
vn 0.000000 0.000000 -0.100000
vn -0.000000 0.100000 -0.000000
vn -0.000000 0.100000 -0.000000
vn -0.000000 0.100000 -0.000000
vn -0.000000 0.100000 -0.000000
vn 0.000000 -0.100000 0.000000
vn 0.000000 -0.100000 0.000000
vn 0.000000 -0.100000 0.000000
vn 0.000000 -0.100000 0.000000
vn -0.100000 0.000000 0.000000
vn -0.100000 0.000000 0.000000
vn -0.100000 0.000000 0.000000
vn -0.100000 0.000000 0.000000
vn 0.100000 0.000000 0.000000
vn 0.100000 0.000000 0.000000
vn 0.100000 0.000000 0.000000
vn 0.100000 0.000000 0.000000
vn 0.000000 0.000000 -0.100000
vn 0.000000 0.000000 -0.100000
vn 0.000000 0.000000 -0.100000
vn 0.000000 0.000000 -0.100000
vn 0.000000 0.000000 -0.100000
vn 0.000000 0.000000 -0.100000
vn 0.000000 0.000000 -0.100000
vn 0.000000 0.000000 -0.100000
vn 0.000000 0.000000 0.100000
vn 0.000000 0.000000 0.100000
vn 0.000000 0.000000 0.100000
vn 0.000000 0.000000 0.100000
vn 0.000000 -0.100000 0.000000
vn 0.000000 -0.100000 0.000000
vn 0.000000 -0.100000 0.000000
vn 0.000000 -0.100000 0.000000
vn 0.000000 0.100000 0.000000
vn 0.000000 0.100000 0.000000
vn 0.000000 0.100000 0.000000
vn 0.000000 0.100000 0.000000
vn 0.100000 0.000000 0.000000
vn 0.100000 0.000000 0.000000
vn 0.100000 0.000000 0.000000
vn 0.100000 0.000000 0.000000
vn -0.100000 0.000000 0.000000
vn -0.100000 0.000000 0.000000
vn -0.100000 0.000000 0.000000
vn -0.100000 0.000000 0.000000
f 17/49/49 18/50/50 20/51/51
f 20/51/51 18/50/50 19/52/52
f 21/53/53 17/54/54 22/55/55
f 22/55/55 17/54/54 20/56/56
f 18/57/57 23/58/58 19/59/59
f 19/59/59 23/58/58 24/60/60
f 19/61/61 24/62/62 20/63/63
f 20/63/63 24/62/62 22/64/64
f 18/65/65 17/66/66 23/67/67
f 23/67/67 17/66/66 21/68/68
f 23/69/69 26/70/70 24/71/71
f 24/71/71 26/70/70 27/72/72
f 24/71/71 27/72/72 28/73/73
f 23/69/69 21/74/74 26/70/70
f 26/70/70 21/74/74 25/75/75
f 25/75/75 21/74/74 22/76/76
f 25/75/75 22/76/76 28/73/73
f 28/73/73 22/76/76 24/71/71
f 29/77/77 30/78/78 32/79/79
f 32/79/79 30/78/78 31/80/80
f 30/81/81 25/82/82 31/83/83
f 31/83/83 25/82/82 28/84/84
f 26/85/85 29/86/86 27/87/87
f 27/87/87 29/86/86 32/88/88
f 27/89/89 32/90/90 28/91/91
f 28/91/91 32/90/90 31/92/92
f 26/93/93 25/94/94 29/95/95
f 29/95/95 25/94/94 30/96/96
# 32 vertices
# 96 texture params
# 96 normals
# 56 facets

# 2 groups
